<?xml version="1.0" encoding="UTF-8"?>
<svg width="20px" height="20px" viewBox="0 0 20 20" version="1.1" xmlns="http://www.w3.org/2000/svg" xmlns:xlink="http://www.w3.org/1999/xlink">
    <!-- Generator: Sketch 64 (93537) - https://sketch.com -->
    <title>Color</title>
    <desc>Created with Sketch.</desc>
    <defs>
        <path d="M6.5638852,10 L21.4361148,10 C22.3276335,10 22.6509198,10.0928256 22.9768457,10.2671327 C23.3027716,10.4414398 23.5585602,10.6972284 23.7328673,11.0231543 C23.9071744,11.3490802 24,11.6723665 24,12.5638852 L24,21.4361148 C24,22.3276335 23.9071744,22.6509198 23.7328673,22.9768457 C23.5585602,23.3027716 23.3027716,23.5585602 22.9768457,23.7328673 C22.6509198,23.9071744 22.3276335,24 21.4361148,24 L6.5638852,24 C5.67236646,24 5.34908022,23.9071744 5.0231543,23.7328673 C4.69722837,23.5585602 4.4414398,23.3027716 4.2671327,22.9768457 C4.09282561,22.6509198 4,22.3276335 4,21.4361148 L4,12.5638852 C4,11.6723665 4.09282561,11.3490802 4.2671327,11.0231543 C4.4414398,10.6972284 4.69722837,10.4414398 5.0231543,10.2671327 C5.34908022,10.0928256 5.67236646,10 6.5638852,10 Z M8.0638852,7 L19.9361148,7 C20.8276335,7 21.1509198,7.09282561 21.4768457,7.2671327 C21.8027716,7.4414398 22.0585602,7.69722837 22.2328673,8.0231543 C22.349072,8.24043825 22.4381163,8.56605348 22.5,9 L5.5,9 C5.56188374,8.56605348 5.65092798,8.24043825 5.7671327,8.0231543 C5.9414398,7.69722837 6.19722837,7.4414398 6.5231543,7.2671327 C6.84908022,7.09282561 7.17236646,7 8.0638852,7 Z M10.0638852,4 L17.9361148,4 C18.8276335,4 19.1509198,4.09282561 19.4768457,4.2671327 C19.8027716,4.4414398 20.0585602,4.69722837 20.2328673,5.0231543 C20.349072,5.24043825 20.4381163,5.56605348 20.5,6 L7.5,6 C7.56188374,5.56605348 7.65092798,5.24043825 7.7671327,5.0231543 C7.9414398,4.69722837 8.19722837,4.4414398 8.5231543,4.2671327 C8.84908022,4.09282561 9.17236646,4 10.0638852,4 Z" id="path-1"></path>
    </defs>
    <g id="Symbols" stroke="none" stroke-width="1" fill="none" fill-rule="evenodd">
        <g id="Icons-/-Albums" transform="translate(-4.000000, -4.000000)">
            <mask id="mask-2" fill="white">
                <use xlink:href="#path-1"></use>
            </mask>
            <use id="Icon" fill="#FFFFFF" xlink:href="#path-1"></use>
            <g id="Colors-/-White" mask="url(#mask-2)" fill="#FFFFFF">
                <rect id="Color" x="0" y="0" width="28" height="28"></rect>
            </g>
        </g>
    </g>
</svg>