<svg width="115" height="27" viewBox="0 0 115 27" fill="none" xmlns="http://www.w3.org/2000/svg">
<path d="M33.565 26.27C31.675 26.27 29.96 25.9083 28.42 25.185C26.88 24.4616 25.5617 23.5166 24.465 22.35C23.3683 21.16 22.5167 19.8066 21.91 18.29C21.3033 16.7733 21 15.21 21 13.6C21 11.9666 21.315 10.3916 21.945 8.87498C22.575 7.35831 23.45 6.02831 24.57 4.88498C25.7133 3.71831 27.055 2.79664 28.595 2.11998C30.1584 1.41998 31.8617 1.06998 33.705 1.06998C35.595 1.06998 37.31 1.43164 38.85 2.15498C40.39 2.87831 41.7083 3.83498 42.805 5.02498C43.9017 6.21498 44.7417 7.56831 45.325 9.08498C45.9317 10.6016 46.235 12.1533 46.235 13.74C46.235 15.3733 45.92 16.9483 45.29 18.465C44.66 19.9583 43.785 21.2883 42.665 22.455C41.545 23.5983 40.2033 24.52 38.64 25.22C37.1 25.92 35.4084 26.27 33.565 26.27ZM27.93 13.67C27.93 14.51 28.0467 15.3266 28.28 16.12C28.5133 16.89 28.8634 17.5783 29.33 18.185C29.7967 18.7916 30.38 19.2816 31.08 19.655C31.8033 20.0283 32.655 20.215 33.635 20.215C34.615 20.215 35.4667 20.0283 36.19 19.655C36.9134 19.2583 37.4967 18.7566 37.94 18.15C38.4067 17.52 38.745 16.8083 38.955 16.015C39.1884 15.2216 39.305 14.4166 39.305 13.6C39.305 12.76 39.1884 11.955 38.955 11.185C38.7217 10.3916 38.36 9.70331 37.87 9.11998C37.4034 8.51331 36.8083 8.03498 36.085 7.68498C35.385 7.31164 34.5567 7.12498 33.6 7.12498C32.62 7.12498 31.7683 7.31164 31.045 7.68498C30.345 8.05831 29.7617 8.55998 29.295 9.18998C28.8283 9.79664 28.4783 10.4966 28.245 11.29C28.035 12.06 27.93 12.8533 27.93 13.67Z" fill="white"/>
<path d="M48.2836 26.06V1.20998H59.6936C60.9069 1.20998 62.0269 1.46664 63.0536 1.97998C64.0803 2.46998 64.9553 3.12331 65.6786 3.93998C66.4253 4.73331 67.0086 5.65498 67.4286 6.70498C67.8486 7.73164 68.0586 8.76998 68.0586 9.81998C68.0586 11.2666 67.7436 12.62 67.1136 13.88C66.4836 15.1166 65.6086 16.1316 64.4886 16.925L69.7386 26.06H62.0386L57.6636 18.43H55.1086V26.06H48.2836ZM55.1086 12.48H59.4136C59.8336 12.48 60.2186 12.2466 60.5686 11.78C60.9419 11.3133 61.1286 10.66 61.1286 9.81998C61.1286 8.95664 60.9186 8.30331 60.4986 7.85998C60.0786 7.39331 59.6586 7.15998 59.2386 7.15998H55.1086V12.48Z" fill="white"/>
<path d="M81.7026 20.215C82.4959 20.215 83.1726 20.04 83.7326 19.69C84.2926 19.34 84.7476 18.885 85.0976 18.325C85.4476 17.7416 85.7042 17.0766 85.8676 16.33C86.0309 15.5833 86.1126 14.8016 86.1126 13.985V1.20998H92.9376V13.985C92.9376 15.7116 92.7159 17.3333 92.2726 18.85C91.8292 20.3433 91.1409 21.6383 90.2076 22.735C89.2742 23.8316 88.0959 24.695 86.6726 25.325C85.2726 25.955 83.6159 26.27 81.7026 26.27C79.7192 26.27 78.0159 25.9433 76.5926 25.29C75.1926 24.6133 74.0376 23.715 73.1276 22.595C72.2176 21.475 71.5526 20.18 71.1326 18.71C70.7126 17.2166 70.5026 15.6416 70.5026 13.985V1.20998H77.3276V13.985C77.3276 14.8016 77.4092 15.595 77.5726 16.365C77.7359 17.1116 77.9926 17.7766 78.3426 18.36C78.6926 18.92 79.1359 19.375 79.6726 19.725C80.2326 20.0516 80.9092 20.215 81.7026 20.215Z" fill="white"/>
<path d="M111.069 9.32998C110.369 8.90998 109.646 8.53664 108.899 8.20998C108.269 7.92998 107.558 7.67331 106.764 7.43998C105.994 7.18331 105.236 7.05498 104.489 7.05498C103.883 7.05498 103.393 7.14831 103.019 7.33498C102.669 7.52164 102.494 7.83664 102.494 8.27998C102.494 8.60664 102.599 8.87498 102.809 9.08498C103.019 9.29498 103.323 9.49331 103.719 9.67998C104.116 9.84331 104.594 10.0066 105.154 10.17C105.738 10.3333 106.391 10.5316 107.114 10.765C108.258 11.115 109.284 11.5 110.194 11.92C111.128 12.34 111.921 12.8416 112.574 13.425C113.228 13.985 113.729 14.6733 114.079 15.49C114.429 16.3066 114.604 17.2983 114.604 18.465C114.604 19.9583 114.324 21.2183 113.764 22.245C113.228 23.2483 112.504 24.0533 111.594 24.66C110.708 25.2666 109.693 25.71 108.549 25.99C107.429 26.2466 106.298 26.375 105.154 26.375C104.244 26.375 103.311 26.305 102.354 26.165C101.398 26.025 100.441 25.8266 99.4842 25.57C98.5509 25.3133 97.6409 25.01 96.7542 24.66C95.8909 24.31 95.0859 23.9133 94.3392 23.47L97.2792 17.485C98.0959 17.9983 98.9475 18.4533 99.8342 18.85C100.581 19.2 101.421 19.515 102.354 19.795C103.311 20.075 104.279 20.215 105.259 20.215C106.006 20.215 106.519 20.1216 106.799 19.935C107.103 19.725 107.254 19.4566 107.254 19.13C107.254 18.78 107.103 18.4883 106.799 18.255C106.519 17.9983 106.123 17.7766 105.609 17.59C105.096 17.4033 104.501 17.2166 103.824 17.03C103.171 16.8433 102.471 16.6216 101.724 16.365C100.628 15.9916 99.6825 15.595 98.8892 15.175C98.0958 14.7316 97.4425 14.2416 96.9292 13.705C96.4159 13.145 96.0309 12.515 95.7742 11.815C95.5409 11.115 95.4242 10.31 95.4242 9.39998C95.4242 8.02331 95.6692 6.80998 96.1592 5.75998C96.6725 4.70998 97.3609 3.83498 98.2242 3.13498C99.0875 2.43498 100.068 1.90998 101.164 1.55998C102.284 1.18664 103.463 0.999977 104.699 0.999977C105.609 0.999977 106.496 1.09331 107.359 1.27998C108.223 1.44331 109.051 1.66498 109.844 1.94498C110.661 2.20164 111.419 2.49331 112.119 2.81998C112.819 3.12331 113.449 3.41498 114.009 3.69498L111.069 9.32998Z" fill="white"/>
<path d="M0.461914 0.987854V25.9879H7.20329V0.987854H0.461914Z" fill="white"/>
<path d="M23.4619 25.9879H15.5309L9.18605 17.6545V9.32119L15.5309 0.987854H23.4619L13.9447 13.4879L23.4619 25.9879Z" fill="white"/>
</svg>