<svg width="28" height="28" viewBox="0 0 28 28" fill="none" xmlns="http://www.w3.org/2000/svg">
<path fill-rule="evenodd" clip-rule="evenodd" d="M0 14C0 6.28053 6.28053 0 14 0C21.7195 0 28 6.28053 28 14C28 21.7195 21.7195 28 14 28C6.28053 28 0 21.7195 0 14ZM5.83335 22.3177C7.93953 24.386 10.8218 25.6666 14 25.6666C20.4332 25.6666 25.6666 20.4332 25.6667 14C25.6667 12.9277 25.5094 11.8936 25.2373 10.9067C24.7054 11.3723 24.1441 11.7456 23.6717 11.7726C23.3755 11.7845 23.1151 11.6911 22.9209 11.4957C22.6845 11.2593 22.3871 11.057 22.1496 10.9329C22.5688 12.0431 23.8209 13.1876 24.2744 13.539C24.4025 13.6382 24.4835 13.7869 24.4977 13.9486C24.5119 14.1105 24.4578 14.2711 24.349 14.3913C23.5799 15.2418 22.7499 16.4489 22.7499 16.9166C22.7499 17.6158 22.3574 17.957 22.0703 18.2064L22.0692 18.2074L22.0691 18.2075C21.7764 18.4615 21.5833 18.6291 21.5833 19.2499C21.5833 21.2312 18.5715 22.0601 18.228 22.1484C18.1801 22.1609 18.1317 22.1666 18.0833 22.1666C17.9204 22.1666 17.762 22.0982 17.6498 21.974C17.5154 21.8242 16.3333 20.4775 16.3333 19.2499C16.3333 18.5754 16.5338 18.2604 16.7566 17.971C16.8733 17.8206 16.9166 17.7642 16.9166 17.4999C16.9166 17.1596 16.8145 16.9244 16.6854 16.6273L16.6837 16.6232C16.5276 16.2655 16.3334 15.8195 16.3334 15.1666C16.1579 14.9159 14.6164 14.5832 12.8334 14.5832C11.6741 14.5832 10.5 13.9822 10.5 12.8332C10.5 12.6921 10.4863 12.5383 10.4719 12.3761C10.471 12.3662 10.4701 12.3562 10.4692 12.3462L10.4691 12.3445C10.4029 11.5919 10.303 10.4548 11.2542 9.50414C12.4181 8.34034 14.2051 8.16659 15.1666 8.16659C16.055 8.16659 16.43 8.34342 16.7607 8.49938L16.7617 8.49986C17.046 8.63428 17.2915 8.74994 18.0834 8.74994C18.3169 8.74994 18.5493 8.75394 18.7766 8.75793L18.8055 8.75837C19.6563 8.77143 20.6136 8.78611 20.8969 8.5073C20.9254 8.47995 21 8.40645 21 8.16665C21 7.5127 19.2061 7 16.9166 7C16.0845 7 15.4975 7.28036 14.8765 7.57693L14.875 7.57766L14.8729 7.57868C14.268 7.86777 13.6425 8.1667 12.8334 8.1667C12.6784 8.1667 12.5303 8.10518 12.4209 7.9958C12.0894 7.66423 11.9492 7.21591 12.0267 6.73285C12.1959 5.66869 13.3341 4.64614 14.3196 4.14657C14.9166 3.84349 15.0237 3.66062 15.0368 3.63273C15.0349 3.63273 15.0311 3.62728 15.0235 3.61642C14.9996 3.58214 14.9379 3.4939 14.7788 3.35245C14.6591 3.24538 14.5885 3.09384 14.5834 2.93377C14.5788 2.77315 14.6409 2.61762 14.7543 2.50425C14.7878 2.47067 14.832 2.44691 14.8763 2.42314C14.901 2.40981 14.9258 2.39649 14.9488 2.38142C14.635 2.35599 14.3202 2.33335 14 2.33335C7.8114 2.33335 2.74728 7.18025 2.36999 13.2754C3.2282 13.7654 3.67899 14.5656 4.01155 15.1706C4.179 15.4749 4.33738 15.7625 4.49575 15.9209C4.70482 16.13 5.06937 16.171 5.45563 16.2143C5.99566 16.2747 7 16.3874 7 17.5C7 18.1827 6.66482 18.6651 6.36929 19.0904L6.36885 19.091L6.36783 19.0925C6.08115 19.5055 5.83335 19.8624 5.83335 20.4166V22.3177Z" fill="white"/>
</svg>
