<?xml version="1.0" encoding="UTF-8"?>
<svg width="512px" height="456px" viewBox="0 0 512 456" version="1.1" xmlns="http://www.w3.org/2000/svg" xmlns:xlink="http://www.w3.org/1999/xlink">
    <!-- Generator: Sketch 64 (93537) - https://sketch.com -->
    <title>Page 1</title>
    <desc>Created with Sketch.</desc>
    <g id="Page-1" stroke="none" stroke-width="1" fill="none" fill-rule="evenodd">
        <g id="love" fill="#FFFFFF" fill-rule="nonzero">
            <path d="M256,455.515625 C248.710938,455.515625 241.683594,452.875 236.207031,448.078125 C215.523438,429.992188 195.582031,412.996094 177.988281,398.003906 L177.898438,397.925781 C126.316406,353.96875 81.773438,316.007812 50.78125,278.613281 C16.136719,236.808594 0,197.171875 0,153.871094 C0,111.800781 14.425781,72.988281 40.617188,44.578125 C67.121094,15.832031 103.488281,2.84217094e-14 143.03125,2.84217094e-14 C172.585938,2.84217094e-14 199.652344,9.34375 223.476562,27.769531 C235.5,37.070312 246.398438,48.453125 256,61.730469 C265.605469,48.453125 276.5,37.070312 288.527344,27.769531 C312.351562,9.34375 339.417969,2.84217094e-14 368.972656,2.84217094e-14 C408.511719,2.84217094e-14 444.882812,15.832031 471.386719,44.578125 C497.578125,72.988281 512,111.800781 512,153.871094 C512,197.171875 495.867188,236.808594 461.222656,278.609375 C430.230469,316.007812 385.691406,353.964844 334.117188,397.917969 C316.492188,412.933594 296.519531,429.957031 275.789062,448.085938 C270.316406,452.875 263.285156,455.515625 256,455.515625 L256,455.515625 Z M143.03125,29.992188 C111.964844,29.992188 83.425781,42.390625 62.664062,64.90625 C41.59375,87.761719 29.988281,119.355469 29.988281,153.871094 C29.988281,190.289062 43.523438,222.859375 73.871094,259.476562 C103.203125,294.871094 146.832031,332.050781 197.347656,375.101562 L197.441406,375.179688 C215.101562,390.230469 235.121094,407.292969 255.957031,425.511719 C276.917969,407.257812 296.96875,390.167969 314.664062,375.09375 C365.175781,332.042969 408.800781,294.871094 438.132812,259.476562 C468.476562,222.859375 482.011719,190.289062 482.011719,153.871094 C482.011719,119.355469 470.40625,87.761719 449.335938,64.90625 C428.578125,42.390625 400.035156,29.992188 368.972656,29.992188 C346.214844,29.992188 325.320312,37.226562 306.871094,51.492188 C290.429688,64.210938 278.976562,80.289062 272.261719,91.539062 C268.808594,97.324219 262.730469,100.777344 256,100.777344 C249.269531,100.777344 243.191406,97.324219 239.738281,91.539062 C233.027344,80.289062 221.574219,64.210938 205.128906,51.492188 C186.679688,37.226562 165.785156,29.992188 143.03125,29.992188 Z" id="Shape"></path>
        </g>
        <polygon id="Path-2" fill="#FFFFFF" points="128.48977 15.6165803 188.258712 25.041001 225.510113 54.1182268 256 87.6582703 322.645308 20.4797389 418.234924 20.4797389 482.011719 87.6582703 503.415674 160.149524 482.011719 228 351.633934 365.399757 261.826292 441.891139 43.8471833 254.459361 12.6599636 144.132602 49.2156904 49.4289868"></polygon>
    </g>
</svg>