<svg width="28" height="28" viewBox="0 0 28 28" fill="none" xmlns="http://www.w3.org/2000/svg">
<path d="M0 0H28V28H0V0Z" fill="black"/>
<path fill-rule="evenodd" clip-rule="evenodd" d="M19.3949 27.3782L27.954 1.18504C28.1835 0.482 27.5149 -0.182651 26.8148 0.0458051L0.621617 8.60486C-0.119922 8.84754 -0.223227 9.8536 0.448313 10.2442L10.347 16C10.6592 16.1817 11.0492 16.1597 11.3394 15.9446L14.1219 13.878L12.0552 16.6604C11.8401 16.9506 11.8181 17.3407 11.9999 17.6528L17.7556 27.5515C18.1483 28.2254 19.153 28.1175 19.3949 27.3782ZM3.92682 16.377C4.27964 16.0242 4.85148 16.0242 5.20374 16.377C5.55656 16.7298 5.55656 17.3017 5.20374 17.6545L2.83732 20.0209C2.48359 20.3746 1.91265 20.3731 1.5604 20.0209C1.20758 19.6681 1.20758 19.0962 1.5604 18.7434L3.92682 16.377ZM10.3453 22.7961C10.6981 22.4432 11.27 22.4432 11.6228 22.7961C11.9756 23.1483 11.9756 23.7201 11.6228 24.073L9.25635 26.4394C8.90173 26.794 8.3292 26.7908 7.97887 26.4394C7.62605 26.0871 7.62605 25.5147 7.97887 25.1625L10.3453 22.7961ZM9.48328 18.5165C9.13046 18.1637 8.55862 18.1643 8.2058 18.5165L2.20845 24.5138C1.85563 24.8667 1.85563 25.4385 2.20845 25.7913C2.56116 26.143 3.13188 26.1443 3.48594 25.7913L9.48328 19.794C9.8361 19.4412 9.8361 18.8693 9.48328 18.5165Z" fill="white"/>
</svg>
