<svg width="28" height="28" viewBox="0 0 28 28" fill="none" xmlns="http://www.w3.org/2000/svg">
<path d="M0 0H28V28H0V0Z" fill="black"/>
<path fill-rule="evenodd" clip-rule="evenodd" d="M12 2C12 0.895431 12.8954 0 14 0C15.1046 0 16 0.895431 16 2V26C16 27.1046 15.1046 28 14 28C12.8954 28 12 27.1046 12 26V2Z" fill="white"/>
<path fill-rule="evenodd" clip-rule="evenodd" d="M26 12C27.1046 12 28 12.8954 28 14C28 15.1046 27.1046 16 26 16H2C0.895432 16 0 15.1046 0 14C0 12.8954 0.89543 12 2 12H26Z" fill="white"/>
</svg>