<svg width="28" height="28" viewBox="0 0 28 28" fill="none" xmlns="http://www.w3.org/2000/svg">
<path d="M0 0H28V28H0V0Z" fill="black"/>
<path fill-rule="evenodd" clip-rule="evenodd" d="M12 2C12 0.895431 12.8954 0 14 0C15.1046 0 16 0.895431 16 2V26C16 27.1046 15.1046 28 14 28C12.8954 28 12 27.1046 12 26V2Z" fill="url(#paint0_linear)"/>
<path fill-rule="evenodd" clip-rule="evenodd" d="M26 12C27.1046 12 28 12.8954 28 14C28 15.1046 27.1046 16 26 16H2C0.895432 16 0 15.1046 0 14C0 12.8954 0.89543 12 2 12H26Z" fill="url(#paint1_linear)"/>
<defs>
<linearGradient id="paint0_linear" x1="0" y1="14" x2="28" y2="14" gradientUnits="userSpaceOnUse">
<stop stop-color="#00F7FF"/>
<stop offset="1" stop-color="#01EF91"/>
</linearGradient>
<linearGradient id="paint1_linear" x1="0" y1="14" x2="28" y2="14" gradientUnits="userSpaceOnUse">
<stop stop-color="#00F7FF"/>
<stop offset="1" stop-color="#01EF91"/>
</linearGradient>
</defs>
</svg>